<?xml version="1.0" standalone="no"?><!DOCTYPE svg PUBLIC "-//W3C//DTD SVG 1.1//EN" "http://www.w3.org/Graphics/SVG/1.1/DTD/svg11.dtd"><svg t="1735285895773" class="icon" viewBox="0 0 1024 1024" version="1.1" xmlns="http://www.w3.org/2000/svg" p-id="1219" xmlns:xlink="http://www.w3.org/1999/xlink" width="200" height="200"><path d="M259.462 675.528H118.034a64.55 64.55 0 0 0-62.502 66.128V957.83a64.55 64.55 0 0 0 62.502 66.127h141.428a64.592 64.592 0 0 0 62.715-66.127V741.656a64.592 64.592 0 0 0-62.715-66.128z m0 304.401H118.034a19.198 19.198 0 0 1-19.199-22.12v-213.53a21.332 21.332 0 0 1 19.199-24.488h141.428a22.12 22.12 0 0 1 20.691 24.488v213.55a20.052 20.052 0 0 1-20.691 22.121z m678.343-668.595H796.377a65.061 65.061 0 0 0-62.501 67.301V956.72a65.04 65.04 0 0 0 62.501 67.28h141.428a65.19 65.19 0 0 0 62.502-67.28V378.635a65.061 65.061 0 0 0-62.502-67.3z m2.133 665.78H796.377a16.425 16.425 0 0 1-17.705-20.33V385.205a19.198 19.198 0 0 1 17.705-23.827h141.428a19.54 19.54 0 0 1 17.919 23.827v571.58c0 14.227-3.627 20.328-15.786 20.328zM440.993 476.866a64.955 64.955 0 0 0-62.714 66.81v413.449a64.933 64.933 0 0 0 62.714 66.81h141.642a64.933 64.933 0 0 0 62.715-66.81V543.677a64.955 64.955 0 0 0-62.715-66.81H440.993zM582.635 977.88H440.993a17.77 17.77 0 0 1-19.198-20.755V543.677a19.05 19.05 0 0 1 19.198-22.376h141.642a19.326 19.326 0 0 1 19.625 22.376v413.449a18.046 18.046 0 0 1-19.625 20.755zM561.73 447.493L904.528 97.272l62.928 65.061L975.99 0.021h-173l63.356 67.045-333.84 334.053-176.411-181.767a41.831 41.831 0 0 0-58.662 0L36.334 488.13a29.694 29.694 0 0 0-3.627 45.842c13.44 13.908 34.13-1.131 49.703-17.215L330.922 264.81l173 179.889a39.271 39.271 0 0 0 28.584 12.052 38.14 38.14 0 0 0 29.224-9.172z" p-id="1220"></path></svg>