<?xml version="1.0" standalone="no"?><!DOCTYPE svg PUBLIC "-//W3C//DTD SVG 1.1//EN" "http://www.w3.org/Graphics/SVG/1.1/DTD/svg11.dtd"><svg t="1735561560918" class="icon" viewBox="0 0 1024 1024" version="1.1" xmlns="http://www.w3.org/2000/svg" p-id="4549" xmlns:xlink="http://www.w3.org/1999/xlink" width="200" height="200"><path d="M883.2 0h-740.571429c-78.628571 0-142.628571 64-142.628571 142.628571v738.742858c0 78.628571 64 142.628571 142.628571 142.628571h738.742858c78.628571 0 142.628571-64 142.628571-142.628571V142.628571c0-78.628571-64-142.628571-140.8-142.628571z m-599.771429 144.457143h457.142858c9.142857 0 18.285714 7.314286 18.285714 18.285714s-9.142857 18.285714-18.285714 18.285714h-457.142858c-9.142857 0-18.285714-7.314286-18.285714-18.285714s7.314286-18.285714 18.285714-18.285714z m-76.8 87.771428h610.742858c9.142857 0 18.285714 7.314286 18.285714 18.285715s-9.142857 18.285714-18.285714 18.285714h-610.742858c-9.142857 0-18.285714-7.314286-18.285714-18.285714s7.314286-18.285714 18.285714-18.285715z m680.228572 566.857143c0 47.542857-40.228571 87.771429-87.771429 87.771429h-574.171428c-47.542857 0-87.771429-38.4-87.771429-87.771429V427.885714c0-47.542857 38.4-87.771429 87.771429-87.771428h574.171428c47.542857 0 87.771429 38.4 87.771429 87.771428v371.2z" p-id="4550"></path><path d="M799.085714 376.685714h-574.171428c-29.257143 0-51.2 23.771429-51.2 51.2v371.2c0 29.257143 23.771429 51.2 51.2 51.2h574.171428c29.257143 0 51.2-23.771429 51.2-51.2V427.885714c0-29.257143-23.771429-51.2-51.2-51.2z m-142.628571 312.685715c-23.771429 0-42.057143-18.285714-42.057143-42.057143 0-10.971429 3.657143-21.942857 10.971429-29.257143l-43.885715-67.657143h-3.657143l-60.342857 133.485714c7.314286 9.142857 12.8 20.114286 12.8 31.085715 0 23.771429-18.285714 42.057143-42.057143 42.057142s-42.057143-18.285714-42.057142-42.057142c0-7.314286 1.828571-14.628571 5.485714-20.114286l-71.314286-78.628572c-3.657143 0-7.314286 1.828571-12.8 1.828572-23.771429 0-42.057143-18.285714-42.057143-42.057143s18.285714-42.057143 42.057143-42.057143c23.771429 0 42.057143 18.285714 42.057143 42.057143 0 7.314286-3.657143 14.628571-7.314286 21.942857l69.485715 76.8c5.485714-1.828571 10.971429-3.657143 16.457142-3.657143h3.657143l62.171429-133.485714c-7.314286-7.314286-12.8-18.285714-12.8-29.257143 0-23.771429 18.285714-42.057143 42.057143-42.057143 23.771429 0 42.057143 18.285714 42.057143 42.057143 0 14.628571-5.485714 25.6-14.628572 32.914286l42.057143 65.828571h3.657143c23.771429 0 42.057143 16.457143 42.057143 40.228572 0 23.771429-18.285714 42.057143-42.057143 42.057143z" p-id="4551"></path></svg>