<?xml version="1.0" standalone="no"?><!DOCTYPE svg PUBLIC "-//W3C//DTD SVG 1.1//EN" "http://www.w3.org/Graphics/SVG/1.1/DTD/svg11.dtd"><svg t="1735285911148" class="icon" viewBox="0 0 1024 1024" version="1.1" xmlns="http://www.w3.org/2000/svg" p-id="1651" xmlns:xlink="http://www.w3.org/1999/xlink" width="200" height="200"><path d="M775.71 557.59c12.52 0 21.45 8.94 21.45 21.45v28.61c16.09 8.94 28.6 16.09 42.9 25.02l28.6-16.09c8.94-3.58 21.45 0 25.03 8.94l28.6 50.05c3.57 8.94 0 21.45-8.94 25.03l-25.03 14.3c3.58 8.94 3.58 16.09 3.58 25.03 0 8.94-3.58 16.09-3.58 25.02l25.03 12.52c8.94 3.58 12.51 16.09 3.57 28.6l-28.6 50.06c-3.58 12.51-16.09 12.51-25.03 8.94l-25.03-16.09c-12.51 12.52-25.03 21.45-42.9 25.03v28.6c0 12.51-8.94 21.45-21.45 21.45H718.5c-12.52 0-21.45-8.94-21.45-21.45v-28.6c-16.09-3.58-28.61-16.09-42.91-25.03l-25.03 16.09c-8.94 3.57-21.45 0-25.02-8.94l-28.61-50.06c-3.57-8.94 0-21.45 8.94-25.02l25.02-16.09c-3.58-8.94-3.58-16.09-3.58-25.02 0-8.94 3.58-16.09 3.58-25.03l-25.02-16.09c-12.52-3.58-12.52-16.09-8.94-25.03l28.61-50.05c3.57-12.51 16.09-12.51 25.02-8.94l25.03 16.09c12.52-12.51 25.02-21.45 42.91-25.02v-28.6c0-12.52 8.94-21.45 21.45-21.45h57.2v1.77zM366.33 863.28c16.09 0 28.6 12.52 28.6 28.6 0 16.09-12.51 30.39-28.6 30.39H130.36c-16.09 0-28.61-12.52-28.61-28.6 0-16.09 12.51-28.6 28.61-28.6h235.97v-1.79z m0-117.99c16.09 0 28.6 12.52 28.6 28.61s-12.51 28.6-28.6 28.6H130.36c-16.09 0-28.61-12.52-28.61-28.6 0-16.09 12.51-28.61 28.61-28.61h235.97z m384.35-64.35c-33.96 0-58.99 25.02-58.99 58.99s25.03 58.99 58.99 58.99c33.97 0 59-25.02 59-58.99-1.79-33.97-26.82-58.99-59-58.99zM434.26 99.95c21.45 0 33.97 16.09 33.97 33.97v50.05c25.03 8.94 46.48 21.45 67.93 37.54l42.91-25.02c16.09-8.94 37.54-3.58 46.48 12.51l46.48 78.66c8.94 16.09 3.58 37.54-12.51 46.48l-42.91 25.03c3.58 12.51 3.58 25.02 3.58 37.54 0 12.51 0 25.03-3.58 37.54l42.91 25.03c16.09 8.94 21.45 28.6 12.51 46.48l-46.48 78.66c-12.52 16.09-28.61 21.45-46.48 12.52l-42.91-25.03c-16.09 16.09-42.9 28.6-67.93 37.54v50.05c0 16.09-16.09 33.96-33.97 37.54H341.3c-17.88 0-33.97-14.3-33.97-32.18v-51.84c-23.24-10.73-46.48-25.02-67.93-41.12l-42.9 25.03c-16.09 8.94-37.54 3.57-46.48-12.52l-46.48-78.66c-5.36-19.66-1.79-41.12 14.3-48.27l42.91-25.02c-3.58-12.52-3.58-25.03-3.58-37.54 0-12.51 3.58-25.02 3.58-37.54l-42.91-25.03c-16.09-12.51-21.45-28.6-12.51-46.48l46.48-78.66c8.94-16.09 28.6-21.45 46.48-12.52l42.9 25.03c19.66-16.09 42.9-28.6 67.93-37.54v-48.27c0-16.09 16.09-33.97 33.97-33.97h91.17z m-46.48 200.22c-55.42 0-96.54 41.12-96.54 94.74 0 53.63 42.91 94.75 96.54 94.75 55.41 0 96.53-41.12 96.53-94.75 0.01-53.63-41.11-94.74-96.53-94.74z m0 0" p-id="1652"></path></svg>