<?xml version="1.0" standalone="no"?><!DOCTYPE svg PUBLIC "-//W3C//DTD SVG 1.1//EN" "http://www.w3.org/Graphics/SVG/1.1/DTD/svg11.dtd"><svg t="1735290939920" class="icon" viewBox="0 0 1024 1024" version="1.1" xmlns="http://www.w3.org/2000/svg" p-id="4470" xmlns:xlink="http://www.w3.org/1999/xlink" width="200" height="200"><path d="M518.5 819.722H211.022c-29.224 0-53-23.775-53-53V182.94c0-29.224 23.776-53 53-53h576.929c29.225 0 53 23.776 53 53V313c0 12.703-10.298 23-23 23s-23-10.297-23-23V182.94c0-3.794-3.206-7-7-7H211.022c-3.794 0-7 3.206-7 7v583.782c0 3.795 3.206 7 7 7H518.5c12.702 0 23 10.298 23 23s-10.298 23-23 23z" p-id="4471"></path><path d="M314.25 286.25h149.292v227.584H314.25zM314.25 556.5h149.292v106.678H314.25zM505.75 286.25h177.791v149.251H505.75zM170.375 332h-68.541c-12.703 0-23-10.297-23-23s10.297-23 23-23h68.541c12.703 0 23 10.297 23 23s-10.298 23-23 23zM170.375 497.5h-68.541c-12.703 0-23-10.297-23-23s10.297-23 23-23h68.541c12.703 0 23 10.297 23 23s-10.298 23-23 23zM170.375 663h-68.541c-12.703 0-23-10.298-23-23s10.297-23 23-23h68.541c12.703 0 23 10.298 23 23s-10.298 23-23 23zM779.602 891a22.925 22.925 0 0 1-16.121-6.596L619.277 742.686c-9.061-8.903-9.187-23.466-0.283-32.525 8.904-9.062 23.467-9.188 32.525-0.283l128.035 125.829 128.083-126.609c9.035-8.931 23.597-8.845 32.526 0.188 8.93 9.034 8.846 23.597-0.188 32.526L795.771 884.357A22.931 22.931 0 0 1 779.602 891z" p-id="4472"></path><path d="M779.602 879c-12.702 0-23-10.298-23-23V437c0-12.703 10.298-23 23-23s23 10.297 23 23v419c0 12.702-10.298 23-23 23z" p-id="4473"></path></svg>