<?xml version="1.0" standalone="no"?><!DOCTYPE svg PUBLIC "-//W3C//DTD SVG 1.1//EN" "http://www.w3.org/Graphics/SVG/1.1/DTD/svg11.dtd"><svg t="1735226899590" class="icon" viewBox="0 0 1024 1024" version="1.1" xmlns="http://www.w3.org/2000/svg" p-id="4529" xmlns:xlink="http://www.w3.org/1999/xlink" width="200" height="200"><path d="M598.381714 165.546667v689.444571h50.907429v-0.975238h117.443047V448.853333l-117.443047-41.350095v-77.507048l165.229714 58.148572c14.60419 9.48419 23.844571 25.185524 25.185524 42.374095l0.170667 4.33981-0.024381 420.10819h55.905523v73.142857H134.095238v-73.142857h55.612952V295.570286c0-19.21219 9.898667-37.059048 26.209524-47.274667l297.20381-130.023619c37.10781-23.186286 85.26019 3.486476 85.26019 47.250286z m-73.142857 27.257904l-262.387809 114.785524v546.401524h262.387809V548.717714l-0.487619 0.219429v-33.840762l0.487619 1.145905V375.466667l-0.487619 0.219428v-33.743238l0.487619 1.121524V192.804571zM475.672381 490.105905v79.11619l-163.157333 67.388953v-79.140572l163.157333-67.364571z m0-172.982857v79.457523l-163.157333 69.436953v-79.481905l163.157333-69.412571z" p-id="4530"></path></svg>