<?xml version="1.0" standalone="no"?><!DOCTYPE svg PUBLIC "-//W3C//DTD SVG 1.1//EN" "http://www.w3.org/Graphics/SVG/1.1/DTD/svg11.dtd"><svg t="1735285914026" class="icon" viewBox="0 0 1024 1024" version="1.1" xmlns="http://www.w3.org/2000/svg" p-id="1793" xmlns:xlink="http://www.w3.org/1999/xlink" width="200" height="200"><path d="M225.28 177.92h192.0256c28.9792 0 52.48 23.5008 52.48 52.48v192.19968c0 28.9792-23.5008 52.48-52.48 52.48H225.28c-28.9792 0-52.48-23.5008-52.48-52.48V230.4c0-28.9792 23.5008-52.48 52.48-52.48z m0 53.76a1.28 1.28 0 0 0 1.28-1.28v192.19968a1.28 1.28 0 0 0-1.28-1.28h192.0256a1.28 1.28 0 0 0-1.28 1.28V230.4c0 0.70656 0.57344 1.28 1.28 1.28H225.28zM225.28 504.77056h192.0256c28.9792 0 52.48 23.49568 52.48 52.48v192.19968c0 28.98432-23.5008 52.48-52.48 52.48H225.28c-28.9792 0-52.48-23.49568-52.48-52.48v-192.19968c0-28.98432 23.5008-52.48 52.48-52.48z m0 53.76a1.28 1.28 0 0 0 1.28-1.28v192.19968a1.28 1.28 0 0 0-1.28-1.28h192.0256a1.28 1.28 0 0 0-1.28 1.28v-192.19968c0 0.70656 0.57344 1.28 1.28 1.28H225.28zM546.9696 177.92h192.0256c28.98432 0 52.48 23.5008 52.48 52.48v192.19968c0 28.9792-23.49568 52.48-52.48 52.48H546.9696c-28.98432 0-52.48-23.5008-52.48-52.48V230.4c0-28.9792 23.49568-52.48 52.48-52.48z m0 53.76a1.28 1.28 0 0 0 1.28-1.28v192.19968a1.28 1.28 0 0 0-1.28-1.28h192.0256a1.28 1.28 0 0 0-1.28 1.28V230.4c0 0.70656 0.57344 1.28 1.28 1.28H546.9696zM694.82496 535.99232l107.09504 185.01632c20.25472 34.98496-4.992 78.7712-45.41952 78.7712h-214.1952c-40.42752 0-65.67424-43.78624-45.41952-78.7712l107.10016-185.01632c20.20864-34.9184 70.62528-34.9184 90.83904 0z m-46.53056 26.9312a1.28 1.28 0 0 0 2.21696 0l-107.10016 185.01632a1.28 1.28 0 0 0-1.10592-1.92h214.1952a1.28 1.28 0 0 0-1.10592 1.92l-107.10016-185.01632z" p-id="1794"></path><path d="M670.72 629.76a20.48 20.48 0 0 0-40.96 0v43.07968a20.48 20.48 0 0 0 40.96 0V629.76z" p-id="1795"></path><path d="M650.24 721.92m-20.48 0a20.48 20.48 0 1 0 40.96 0 20.48 20.48 0 1 0-40.96 0Z" p-id="1796"></path></svg>