<?xml version="1.0" standalone="no"?><!DOCTYPE svg PUBLIC "-//W3C//DTD SVG 1.1//EN" "http://www.w3.org/Graphics/SVG/1.1/DTD/svg11.dtd"><svg t="1735285900775" class="icon" viewBox="0 0 1024 1024" version="1.1" xmlns="http://www.w3.org/2000/svg" p-id="1365" xmlns:xlink="http://www.w3.org/1999/xlink" width="200" height="200"><path d="M216.576 155.136c0 31.232 25.6 56.832 56.832 56.832s56.832-25.6 56.832-56.832-25.088-56.832-56.832-57.344-56.32 25.6-56.832 57.344zM102.912 326.144c0 31.232 25.6 56.832 56.832 56.832s56.832-25.6 56.832-56.832-25.6-56.832-56.832-56.832-56.832 25.088-56.832 56.832z m170.496 113.664c0 31.232 25.6 56.832 56.832 56.832s56.832-25.088 57.344-56.832v-0.512c0-31.232-25.088-56.832-56.832-57.344-31.232 0.512-56.832 26.112-57.344 57.856 0-0.512 0 0 0 0z m341.504 0c0 31.232 25.6 56.832 56.832 56.832s56.832-25.6 56.832-56.832-25.6-56.832-56.832-56.832-56.832 25.6-56.832 56.832z m0 170.496c0 31.232 25.6 56.832 56.832 56.832s56.832-25.6 56.832-56.832-25.6-56.832-56.832-56.832-56.832 25.6-56.832 56.832z m170.496 0c0 31.232 25.088 56.832 56.832 57.344 31.232 0 56.832-25.088 57.344-56.832v-0.512c0-31.232-25.088-56.832-56.832-57.344-31.232 0-56.832 25.6-57.344 57.344z m0-170.496c0 31.232 25.088 56.832 56.832 57.344 31.232 0 56.832-25.088 57.344-56.832v-0.512c0-31.232-25.088-56.832-56.832-57.344-31.232 0-56.832 25.6-57.344 57.344 0-0.512 0 0 0 0zM159.744 838.144c0 31.232 25.6 56.832 56.832 56.832s56.832-25.6 56.832-56.832-25.6-56.832-56.832-56.832-56.832 25.088-56.832 56.832z m56.832-199.168c0 47.104 38.4 85.504 85.504 85.504s85.504-38.4 85.504-85.504-38.4-85.504-85.504-85.504-85.504 38.4-85.504 85.504z" fill="#333333" p-id="1366"></path><path d="M444.416 1008.64l284.672-170.496v-113.664h-56.832V803.84L501.76 906.24V143.872l170.496 102.4v79.872h56.832V211.968L444.416 41.472V1008.64z" fill="#333333" p-id="1367"></path></svg>