<?xml version="1.0" standalone="no"?><!DOCTYPE svg PUBLIC "-//W3C//DTD SVG 1.1//EN" "http://www.w3.org/Graphics/SVG/1.1/DTD/svg11.dtd"><svg t="1735285904195" class="icon" viewBox="0 0 1024 1024" version="1.1" xmlns="http://www.w3.org/2000/svg" p-id="1508" xmlns:xlink="http://www.w3.org/1999/xlink" width="200" height="200"><path d="M465.92 783.36H179.2c-15.36 0-25.6 10.24-25.6 25.6s10.24 25.6 25.6 25.6h286.72c15.36 0 25.6-10.24 25.6-25.6 0-10.24-15.36-25.6-25.6-25.6zM896 122.88h-768c-30.72 0-51.2 20.48-51.2 51.2v471.04c0 30.72 20.48 51.2 51.2 51.2h348.16v-51.2H128V174.08h768v296.96h51.2V174.08c0-30.72-20.48-51.2-51.2-51.2z" p-id="1509"></path><path d="M378.88 399.36l-46.08-87.04-51.2-81.92-51.2 81.92-46.08 87.04 97.28-51.2zM645.12 358.4V307.2c-97.28 0-179.2 71.68-194.56 168.96H266.24v51.2h235.52v-25.6c0-81.92 66.56-143.36 143.36-143.36zM542.72 573.44v240.64c10.24 61.44 102.4 92.16 199.68 92.16s194.56-30.72 204.8-92.16v-235.52c0-133.12-404.48-133.12-404.48-5.12z m353.28 230.4c0 15.36-51.2 46.08-153.6 46.08s-153.6-35.84-153.6-46.08v-46.08c46.08 20.48 102.4 30.72 153.6 30.72s107.52-10.24 153.6-30.72v46.08z m0-112.64c0 15.36-51.2 46.08-153.6 46.08s-153.6-30.72-153.6-46.08v-51.2c46.08 20.48 102.4 35.84 153.6 30.72 51.2 0 107.52-10.24 153.6-30.72v51.2z m-153.6-71.68c-102.4 0-153.6-35.84-153.6-46.08 0-15.36 51.2-46.08 153.6-46.08s153.6 30.72 153.6 46.08c0 15.36-51.2 46.08-153.6 46.08z" p-id="1510"></path></svg>