<?xml version="1.0" standalone="no"?><!DOCTYPE svg PUBLIC "-//W3C//DTD SVG 1.1//EN" "http://www.w3.org/Graphics/SVG/1.1/DTD/svg11.dtd"><svg t="1735573605001" class="icon" viewBox="0 0 1111 1024" version="1.1" xmlns="http://www.w3.org/2000/svg" p-id="8925" xmlns:xlink="http://www.w3.org/1999/xlink" width="216.9921875" height="200"><path d="M864.273858 1019.866301l-186.677863-67.737553a31.526347 31.526347 0 0 1-18.078045-16.534798 32.132623 32.132623 0 0 1 40.179558-43.817213l186.512514 67.737553a2.590452 2.590452 0 0 0 1.818828 0l179.788363-67.572205a30.313795 30.313795 0 0 1 11.40901-2.149524 32.187739 32.187739 0 0 1 11.40901 62.281071l-179.788363 67.572205a67.792669 67.792669 0 0 1-23.92034 4.354163 68.564293 68.564293 0 0 1-22.652672-4.133699z m-703.445396-14.881318a160.883578 160.883578 0 0 1-160.773346-160.773346v-683.438291A160.883578 160.883578 0 0 1 160.828462 0h773.001776a161.048926 161.048926 0 0 1 160.993811 160.773346v327.554336a38.856774 38.856774 0 0 1-77.658432 0V160.773346a83.280263 83.280263 0 0 0-83.280263-83.280262H160.883578a83.280263 83.280263 0 0 0-83.114914 83.280262v683.713871a83.225147 83.225147 0 0 0 83.114914 83.114914h322.649013a38.581194 38.581194 0 1 1 0 77.162388z m703.445396-101.413424l-186.512515-67.351741a32.683783 32.683783 0 0 1-21.16454-24.636848 31.857043 31.857043 0 0 1 11.023198-30.589375 32.297971 32.297971 0 0 1 31.857043-5.511599l186.512514 67.351741a1.598364 1.598364 0 0 0 1.818828 0l179.788363-67.351741a30.313795 30.313795 0 0 1 11.40901-2.149524 32.573551 32.573551 0 0 1 30.038215 20.778729 32.187739 32.187739 0 0 1-18.629205 41.502341l-179.788363 67.351741a66.139189 66.139189 0 0 1-23.699876 4.354164 65.147102 65.147102 0 0 1-22.652672-3.527424z m0.551159-115.743581l-176.371171-62.887346a47.5651 47.5651 0 0 1-32.242855-45.029765 48.11626 48.11626 0 0 1 32.408203-45.250229l176.371171-62.336186a64.155014 64.155014 0 0 1 45.084881 0l169.867485 62.446418a48.006028 48.006028 0 0 1 31.526347 44.919533 47.399752 47.399752 0 0 1-31.857043 44.864417l-169.481673 62.666882a67.627321 67.627321 0 0 1-22.983368 4.133699 71.650789 71.650789 0 0 1-22.377092-2.976263z m-112.601969-107.917111l134.372786 47.785564h0.716508l129.632811-47.785564-129.632811-47.785564h-0.716508z m-574.363744-46.573012a141.152053 141.152053 0 0 1 276.131115-41.447226l0.881856 2.700684h92.374401a38.746542 38.746542 0 0 1 0 77.493083H454.872275l-0.881856 2.921148a141.207169 141.207169 0 0 1-276.131115-41.667689z m77.658431 0a63.65897 63.65897 0 1 0 63.548738-63.714086A63.769202 63.769202 0 0 0 255.462619 634.054362z m271.060445-271.225793l-0.881856-2.921148H216.605845a38.746542 38.746542 0 0 1 0-77.493083h309.255827l0.881856-2.7558a140.986705 140.986705 0 0 1 269.627428 0l0.881856 2.7558h85.650251a38.746542 38.746542 0 0 1 0 77.493083h-85.650251l-0.881856 2.921148a141.152053 141.152053 0 0 1-270.068356 0z m71.154744-41.667689a63.65897 63.65897 0 1 0 63.548738-63.714086 63.65897 63.65897 0 0 0-63.548738 64.155014z" p-id="8926"></path></svg>