<?xml version="1.0" standalone="no"?><!DOCTYPE svg PUBLIC "-//W3C//DTD SVG 1.1//EN" "http://www.w3.org/Graphics/SVG/1.1/DTD/svg11.dtd"><svg t="1735879766559" class="icon" viewBox="0 0 1024 1024" version="1.1" xmlns="http://www.w3.org/2000/svg" p-id="7125" xmlns:xlink="http://www.w3.org/1999/xlink" width="200" height="200"><path d="M513.536 513.536c-31.232 0-61.952-5.632-86.528-17.408L64.512 326.656c-47.616-22.016-52.736-56.32-52.224-70.144 0-13.824 5.12-47.616 52.736-69.12L427.52 18.944c49.664-23.04 123.904-23.04 173.568 0l363.008 169.472c46.592 21.504 51.712 55.296 51.712 69.12 0 13.824-5.12 47.616-51.712 69.632L601.088 496.64c-25.088 11.264-56.32 16.896-87.552 16.896z m-403.968-256l352.256 164.864c27.136 12.8 76.8 12.8 103.936 0l352.768-164.864-352.256-164.352c-27.136-12.8-76.8-12.8-103.936 0L109.568 257.536z m-18.432-9.728z" fill="#8A8A8A" p-id="7126"></path><path d="M509.952 752.128c-31.232 0-61.952-5.632-86.528-17.408h-0.512L25.088 542.208c-20.48-9.728-28.672-34.304-18.944-54.784s34.304-28.672 54.784-18.944l397.312 192.512c27.136 12.8 76.8 12.8 103.936 0l403.968-192.512c20.48-9.728 45.056-1.024 54.784 19.456 9.728 20.48 1.024 45.056-19.456 54.784l-404.48 192.512c-24.576 11.264-55.808 16.896-87.04 16.896z" fill="#8A8A8A" p-id="7127"></path><path d="M509.952 1020.416c-31.232 0-61.952-5.632-86.528-17.408h-0.512L25.088 810.496c-20.48-9.728-28.672-34.304-18.944-54.784 9.728-20.48 34.304-28.672 54.784-18.944l397.312 192.512c27.136 12.8 76.8 12.8 103.936 0l403.968-192.512c20.48-9.728 45.056-1.024 54.784 19.456 9.728 20.48 1.024 45.056-19.456 54.784l-404.48 192.512c-24.576 11.264-55.808 16.896-87.04 16.896z" fill="#8A8A8A" p-id="7128"></path></svg>