<?xml version="1.0" standalone="no"?><!DOCTYPE svg PUBLIC "-//W3C//DTD SVG 1.1//EN" "http://www.w3.org/Graphics/SVG/1.1/DTD/svg11.dtd"><svg t="1735469470078" class="icon" viewBox="0 0 1024 1024" version="1.1" xmlns="http://www.w3.org/2000/svg" p-id="6478" xmlns:xlink="http://www.w3.org/1999/xlink" width="200" height="200"><path d="M193.536 212.0704H108.8512a18.432 18.432 0 0 1-18.432-18.432V108.9024a18.432 18.432 0 0 1 18.432-18.432H193.536a18.432 18.432 0 0 1 18.432 18.432v84.736a18.432 18.432 0 0 1-18.432 18.432z m-66.2528-36.864h47.8208v-47.872h-47.8208zM919.296 212.0704H834.56a18.432 18.432 0 0 1-18.432-18.432V108.9024a18.432 18.432 0 0 1 18.432-18.432h84.736a18.432 18.432 0 0 1 18.432 18.432v84.736a18.4832 18.4832 0 0 1-18.432 18.432z m-66.56-36.864H901.12v-47.872h-48.128zM762.5728 169.6768H265.5744a18.432 18.432 0 1 1 0-36.864h496.9984a18.432 18.432 0 0 1 0 36.864zM151.1936 772.6592a18.432 18.432 0 0 1-18.432-18.432V257.2288a18.432 18.432 0 1 1 36.864 0v496.9984a18.432 18.432 0 0 1-18.432 18.432zM876.9024 772.6592a18.432 18.432 0 0 1-18.432-18.432V257.2288a18.432 18.432 0 1 1 36.864 0v496.9984a18.432 18.432 0 0 1-18.432 18.432zM193.536 932.608H108.8512a18.432 18.432 0 0 1-18.432-18.432V829.44a18.432 18.432 0 0 1 18.432-18.432H193.536a18.432 18.432 0 0 1 18.432 18.432v84.736a18.432 18.432 0 0 1-18.432 18.432zM127.2832 896h47.8208v-48.128h-47.8208zM919.296 932.608H834.56a18.432 18.432 0 0 1-18.432-18.432V829.44a18.432 18.432 0 0 1 18.432-18.432h84.736a18.432 18.432 0 0 1 18.432 18.432v84.736a18.432 18.432 0 0 1-18.432 18.432z m-66.56-36.864H901.12v-47.872h-48.128zM762.5728 890.2144H265.5744a18.432 18.432 0 0 1 0-36.864h496.9984a18.432 18.432 0 0 1 0 36.864zM709.1712 659.2a18.3808 18.3808 0 0 1-15.9744-9.216l-179.2-310.272-179.2 310.272a18.432 18.432 0 1 1-31.8976-18.432l195.072-337.92a18.432 18.432 0 0 1 31.9488 0l195.072 337.92a18.3808 18.3808 0 0 1-15.9232 27.648z" fill="#4D4D4D" p-id="6479"></path><path d="M514.048 738.6112c-104.96 0-217.9584-25.6-217.9584-82.4832S409.088 573.44 514.048 573.44s218.0096 25.6 218.0096 82.5344-112.9984 82.6368-218.0096 82.6368z m0-128c-51.456 0-99.5328 6.3488-135.4752 17.8688-34.4576 11.1104-45.6192 23.5008-45.6192 27.8016s11.1616 16.6912 45.6192 27.7504c35.84 11.52 84.0704 17.8688 135.4752 17.8688s99.584-6.3488 135.4752-17.8688c34.5088-11.0592 45.6704-23.5008 45.6704-27.7504s-11.1616-16.6912-45.6704-27.8016c-35.8912-11.6736-84.0192-18.0224-135.4752-18.0224z" fill="#4D4D4D" p-id="6480"></path></svg>